<mxfile host="app.diagrams.net" modified="2023-09-16T00:46:10.763Z" agent="Mozilla/5.0 (Windows NT 10.0; Win64; x64) AppleWebKit/537.36 (KHTML, like Gecko) Chrome/116.0.0.0 Safari/537.36" etag="myfnkBYC4ALypf7YtTTR" version="21.7.5" type="github">
  <diagram name="Page-1" id="ipeNseR2QRFUB2ZpLbwH">
    <mxGraphModel dx="1909" dy="1029" grid="1" gridSize="10" guides="1" tooltips="1" connect="1" arrows="1" fold="1" page="1" pageScale="1" pageWidth="850" pageHeight="1100" math="0" shadow="0">
      <root>
        <mxCell id="0" />
        <mxCell id="1" parent="0" />
        <mxCell id="SPdRmJfL2yPGevu8dOS3-29" value="Department" style="rounded=0;whiteSpace=wrap;html=1;" vertex="1" parent="1">
          <mxGeometry x="210" y="90" width="120" height="60" as="geometry" />
        </mxCell>
        <mxCell id="SPdRmJfL2yPGevu8dOS3-63" style="edgeStyle=none;shape=connector;rounded=0;orthogonalLoop=1;jettySize=auto;html=1;entryX=0;entryY=0.5;entryDx=0;entryDy=0;labelBackgroundColor=default;strokeColor=default;fontFamily=Helvetica;fontSize=11;fontColor=default;endArrow=none;" edge="1" parent="1" source="SPdRmJfL2yPGevu8dOS3-30" target="SPdRmJfL2yPGevu8dOS3-29">
          <mxGeometry relative="1" as="geometry" />
        </mxCell>
        <mxCell id="SPdRmJfL2yPGevu8dOS3-30" value="&lt;u&gt;Dept_Name&lt;/u&gt;" style="ellipse;whiteSpace=wrap;html=1;" vertex="1" parent="1">
          <mxGeometry x="70" y="20" width="90" height="40" as="geometry" />
        </mxCell>
        <mxCell id="SPdRmJfL2yPGevu8dOS3-64" style="edgeStyle=none;shape=connector;rounded=0;orthogonalLoop=1;jettySize=auto;html=1;exitX=1;exitY=0.5;exitDx=0;exitDy=0;labelBackgroundColor=default;strokeColor=default;fontFamily=Helvetica;fontSize=11;fontColor=default;endArrow=none;" edge="1" parent="1" source="SPdRmJfL2yPGevu8dOS3-31">
          <mxGeometry relative="1" as="geometry">
            <mxPoint x="210" y="120" as="targetPoint" />
          </mxGeometry>
        </mxCell>
        <mxCell id="SPdRmJfL2yPGevu8dOS3-31" value="Dept_WebAddress" style="ellipse;whiteSpace=wrap;html=1;" vertex="1" parent="1">
          <mxGeometry x="20" y="70" width="120" height="40" as="geometry" />
        </mxCell>
        <mxCell id="SPdRmJfL2yPGevu8dOS3-65" style="edgeStyle=none;shape=connector;rounded=0;orthogonalLoop=1;jettySize=auto;html=1;exitX=1;exitY=0.5;exitDx=0;exitDy=0;labelBackgroundColor=default;strokeColor=default;fontFamily=Helvetica;fontSize=11;fontColor=default;endArrow=none;" edge="1" parent="1" source="SPdRmJfL2yPGevu8dOS3-33">
          <mxGeometry relative="1" as="geometry">
            <mxPoint x="210" y="120" as="targetPoint" />
          </mxGeometry>
        </mxCell>
        <mxCell id="SPdRmJfL2yPGevu8dOS3-33" value="Dept_Phonenumber" style="ellipse;whiteSpace=wrap;html=1;" vertex="1" parent="1">
          <mxGeometry y="120" width="120" height="40" as="geometry" />
        </mxCell>
        <mxCell id="SPdRmJfL2yPGevu8dOS3-66" style="edgeStyle=none;shape=connector;rounded=0;orthogonalLoop=1;jettySize=auto;html=1;exitX=1;exitY=0.5;exitDx=0;exitDy=0;labelBackgroundColor=default;strokeColor=default;fontFamily=Helvetica;fontSize=11;fontColor=default;endArrow=none;" edge="1" parent="1" source="SPdRmJfL2yPGevu8dOS3-34">
          <mxGeometry relative="1" as="geometry">
            <mxPoint x="210" y="120" as="targetPoint" />
          </mxGeometry>
        </mxCell>
        <mxCell id="SPdRmJfL2yPGevu8dOS3-34" value="Dept_Email" style="ellipse;whiteSpace=wrap;html=1;" vertex="1" parent="1">
          <mxGeometry x="20" y="170" width="100" height="40" as="geometry" />
        </mxCell>
        <mxCell id="SPdRmJfL2yPGevu8dOS3-67" style="edgeStyle=none;shape=connector;rounded=0;orthogonalLoop=1;jettySize=auto;html=1;exitX=0.5;exitY=0;exitDx=0;exitDy=0;labelBackgroundColor=default;strokeColor=default;fontFamily=Helvetica;fontSize=11;fontColor=default;endArrow=none;" edge="1" parent="1" source="SPdRmJfL2yPGevu8dOS3-40">
          <mxGeometry relative="1" as="geometry">
            <mxPoint x="210" y="120" as="targetPoint" />
          </mxGeometry>
        </mxCell>
        <mxCell id="SPdRmJfL2yPGevu8dOS3-40" value="Mailing Address" style="ellipse;whiteSpace=wrap;html=1;" vertex="1" parent="1">
          <mxGeometry x="100" y="220" width="120" height="40" as="geometry" />
        </mxCell>
        <mxCell id="SPdRmJfL2yPGevu8dOS3-69" style="edgeStyle=none;shape=connector;rounded=0;orthogonalLoop=1;jettySize=auto;html=1;exitX=0.5;exitY=0;exitDx=0;exitDy=0;entryX=0.5;entryY=1;entryDx=0;entryDy=0;labelBackgroundColor=default;strokeColor=default;fontFamily=Helvetica;fontSize=11;fontColor=default;endArrow=none;" edge="1" parent="1" source="SPdRmJfL2yPGevu8dOS3-51" target="SPdRmJfL2yPGevu8dOS3-40">
          <mxGeometry relative="1" as="geometry" />
        </mxCell>
        <mxCell id="SPdRmJfL2yPGevu8dOS3-51" value="Street Address" style="ellipse;whiteSpace=wrap;html=1;" vertex="1" parent="1">
          <mxGeometry y="290" width="120" height="40" as="geometry" />
        </mxCell>
        <mxCell id="SPdRmJfL2yPGevu8dOS3-68" style="edgeStyle=none;shape=connector;rounded=0;orthogonalLoop=1;jettySize=auto;html=1;exitX=0.5;exitY=0;exitDx=0;exitDy=0;entryX=0.5;entryY=1;entryDx=0;entryDy=0;labelBackgroundColor=default;strokeColor=default;fontFamily=Helvetica;fontSize=11;fontColor=default;endArrow=none;" edge="1" parent="1" source="SPdRmJfL2yPGevu8dOS3-55" target="SPdRmJfL2yPGevu8dOS3-40">
          <mxGeometry relative="1" as="geometry" />
        </mxCell>
        <mxCell id="SPdRmJfL2yPGevu8dOS3-55" value="City" style="ellipse;whiteSpace=wrap;html=1;" vertex="1" parent="1">
          <mxGeometry x="110" y="330" width="60" height="40" as="geometry" />
        </mxCell>
        <mxCell id="SPdRmJfL2yPGevu8dOS3-59" style="edgeStyle=none;shape=connector;rounded=0;orthogonalLoop=1;jettySize=auto;html=1;exitX=1;exitY=0.5;exitDx=0;exitDy=0;labelBackgroundColor=default;strokeColor=default;fontFamily=Helvetica;fontSize=11;fontColor=default;endArrow=none;" edge="1" parent="1" source="SPdRmJfL2yPGevu8dOS3-55" target="SPdRmJfL2yPGevu8dOS3-55">
          <mxGeometry relative="1" as="geometry" />
        </mxCell>
        <mxCell id="SPdRmJfL2yPGevu8dOS3-60" style="edgeStyle=none;shape=connector;rounded=0;orthogonalLoop=1;jettySize=auto;html=1;exitX=1;exitY=0.5;exitDx=0;exitDy=0;labelBackgroundColor=default;strokeColor=default;fontFamily=Helvetica;fontSize=11;fontColor=default;endArrow=none;" edge="1" parent="1" source="SPdRmJfL2yPGevu8dOS3-55" target="SPdRmJfL2yPGevu8dOS3-55">
          <mxGeometry relative="1" as="geometry" />
        </mxCell>
        <mxCell id="SPdRmJfL2yPGevu8dOS3-71" style="edgeStyle=none;shape=connector;rounded=0;orthogonalLoop=1;jettySize=auto;html=1;exitX=0.5;exitY=0;exitDx=0;exitDy=0;entryX=0.5;entryY=1;entryDx=0;entryDy=0;labelBackgroundColor=default;strokeColor=default;fontFamily=Helvetica;fontSize=11;fontColor=default;endArrow=none;" edge="1" parent="1" source="SPdRmJfL2yPGevu8dOS3-70" target="SPdRmJfL2yPGevu8dOS3-40">
          <mxGeometry relative="1" as="geometry" />
        </mxCell>
        <mxCell id="SPdRmJfL2yPGevu8dOS3-70" value="State" style="ellipse;whiteSpace=wrap;html=1;fontFamily=Helvetica;fontSize=11;fontColor=default;" vertex="1" parent="1">
          <mxGeometry x="180" y="330" width="70" height="40" as="geometry" />
        </mxCell>
        <mxCell id="SPdRmJfL2yPGevu8dOS3-74" style="edgeStyle=none;shape=connector;rounded=0;orthogonalLoop=1;jettySize=auto;html=1;exitX=0.5;exitY=0;exitDx=0;exitDy=0;labelBackgroundColor=default;strokeColor=default;fontFamily=Helvetica;fontSize=11;fontColor=default;endArrow=none;" edge="1" parent="1" source="SPdRmJfL2yPGevu8dOS3-73">
          <mxGeometry relative="1" as="geometry">
            <mxPoint x="160" y="260" as="targetPoint" />
          </mxGeometry>
        </mxCell>
        <mxCell id="SPdRmJfL2yPGevu8dOS3-73" value="Zipcode" style="ellipse;whiteSpace=wrap;html=1;fontFamily=Helvetica;fontSize=11;fontColor=default;" vertex="1" parent="1">
          <mxGeometry x="230" y="280" width="90" height="40" as="geometry" />
        </mxCell>
        <mxCell id="SPdRmJfL2yPGevu8dOS3-76" style="edgeStyle=none;shape=connector;rounded=0;orthogonalLoop=1;jettySize=auto;html=1;exitX=0;exitY=0.5;exitDx=0;exitDy=0;entryX=1;entryY=0.5;entryDx=0;entryDy=0;labelBackgroundColor=default;strokeColor=default;fontFamily=Helvetica;fontSize=11;fontColor=default;endArrow=none;" edge="1" parent="1" source="SPdRmJfL2yPGevu8dOS3-75" target="SPdRmJfL2yPGevu8dOS3-29">
          <mxGeometry relative="1" as="geometry" />
        </mxCell>
        <mxCell id="SPdRmJfL2yPGevu8dOS3-86" style="edgeStyle=none;shape=link;rounded=0;orthogonalLoop=1;jettySize=auto;html=1;exitX=1;exitY=0.5;exitDx=0;exitDy=0;entryX=0;entryY=0.5;entryDx=0;entryDy=0;labelBackgroundColor=default;strokeColor=default;fontFamily=Helvetica;fontSize=11;fontColor=default;endArrow=none;" edge="1" parent="1" source="SPdRmJfL2yPGevu8dOS3-75" target="SPdRmJfL2yPGevu8dOS3-77">
          <mxGeometry relative="1" as="geometry" />
        </mxCell>
        <mxCell id="SPdRmJfL2yPGevu8dOS3-75" value="Works&lt;br&gt;for" style="rhombus;whiteSpace=wrap;html=1;fontFamily=Helvetica;fontSize=11;fontColor=default;" vertex="1" parent="1">
          <mxGeometry x="380" y="90" width="80" height="60" as="geometry" />
        </mxCell>
        <mxCell id="SPdRmJfL2yPGevu8dOS3-88" style="edgeStyle=none;shape=link;rounded=0;orthogonalLoop=1;jettySize=auto;html=1;exitX=0.5;exitY=1;exitDx=0;exitDy=0;entryX=0.5;entryY=0;entryDx=0;entryDy=0;labelBackgroundColor=default;strokeColor=default;fontFamily=Helvetica;fontSize=11;fontColor=default;endArrow=none;" edge="1" parent="1" source="SPdRmJfL2yPGevu8dOS3-77" target="SPdRmJfL2yPGevu8dOS3-87">
          <mxGeometry relative="1" as="geometry" />
        </mxCell>
        <mxCell id="SPdRmJfL2yPGevu8dOS3-77" value="Employee" style="rounded=0;whiteSpace=wrap;html=1;fontFamily=Helvetica;fontSize=11;fontColor=default;" vertex="1" parent="1">
          <mxGeometry x="550" y="90" width="120" height="60" as="geometry" />
        </mxCell>
        <mxCell id="SPdRmJfL2yPGevu8dOS3-82" style="edgeStyle=none;shape=connector;rounded=0;orthogonalLoop=1;jettySize=auto;html=1;exitX=1;exitY=0.5;exitDx=0;exitDy=0;entryX=0.5;entryY=0;entryDx=0;entryDy=0;labelBackgroundColor=default;strokeColor=default;fontFamily=Helvetica;fontSize=11;fontColor=default;endArrow=none;" edge="1" parent="1" source="SPdRmJfL2yPGevu8dOS3-78" target="SPdRmJfL2yPGevu8dOS3-77">
          <mxGeometry relative="1" as="geometry" />
        </mxCell>
        <mxCell id="SPdRmJfL2yPGevu8dOS3-78" value="&lt;u&gt;Employee ID&lt;/u&gt;" style="ellipse;whiteSpace=wrap;html=1;fontFamily=Helvetica;fontSize=11;fontColor=default;" vertex="1" parent="1">
          <mxGeometry x="390" y="30" width="120" height="30" as="geometry" />
        </mxCell>
        <mxCell id="SPdRmJfL2yPGevu8dOS3-83" style="edgeStyle=none;shape=connector;rounded=0;orthogonalLoop=1;jettySize=auto;html=1;exitX=0.5;exitY=1;exitDx=0;exitDy=0;labelBackgroundColor=default;strokeColor=default;fontFamily=Helvetica;fontSize=11;fontColor=default;endArrow=none;" edge="1" parent="1" source="SPdRmJfL2yPGevu8dOS3-79">
          <mxGeometry relative="1" as="geometry">
            <mxPoint x="610" y="90" as="targetPoint" />
          </mxGeometry>
        </mxCell>
        <mxCell id="SPdRmJfL2yPGevu8dOS3-79" value="Employee Name" style="ellipse;whiteSpace=wrap;html=1;fontFamily=Helvetica;fontSize=11;fontColor=default;" vertex="1" parent="1">
          <mxGeometry x="520" y="10" width="120" height="30" as="geometry" />
        </mxCell>
        <mxCell id="SPdRmJfL2yPGevu8dOS3-84" style="edgeStyle=none;shape=connector;rounded=0;orthogonalLoop=1;jettySize=auto;html=1;exitX=0.5;exitY=1;exitDx=0;exitDy=0;labelBackgroundColor=default;strokeColor=default;fontFamily=Helvetica;fontSize=11;fontColor=default;endArrow=none;" edge="1" parent="1" source="SPdRmJfL2yPGevu8dOS3-80">
          <mxGeometry relative="1" as="geometry">
            <mxPoint x="610" y="90" as="targetPoint" />
          </mxGeometry>
        </mxCell>
        <mxCell id="SPdRmJfL2yPGevu8dOS3-80" value="Date Of Birth" style="ellipse;whiteSpace=wrap;html=1;fontFamily=Helvetica;fontSize=11;fontColor=default;" vertex="1" parent="1">
          <mxGeometry x="660" y="10" width="120" height="30" as="geometry" />
        </mxCell>
        <mxCell id="SPdRmJfL2yPGevu8dOS3-85" style="edgeStyle=none;shape=connector;rounded=0;orthogonalLoop=1;jettySize=auto;html=1;exitX=0;exitY=0.5;exitDx=0;exitDy=0;labelBackgroundColor=default;strokeColor=default;fontFamily=Helvetica;fontSize=11;fontColor=default;endArrow=none;" edge="1" parent="1" source="SPdRmJfL2yPGevu8dOS3-81">
          <mxGeometry relative="1" as="geometry">
            <mxPoint x="610" y="90" as="targetPoint" />
          </mxGeometry>
        </mxCell>
        <mxCell id="SPdRmJfL2yPGevu8dOS3-81" value="Employee&amp;nbsp;Email" style="ellipse;whiteSpace=wrap;html=1;fontFamily=Helvetica;fontSize=11;fontColor=default;" vertex="1" parent="1">
          <mxGeometry x="720" y="50" width="120" height="40" as="geometry" />
        </mxCell>
        <mxCell id="SPdRmJfL2yPGevu8dOS3-90" style="edgeStyle=none;shape=connector;rounded=0;orthogonalLoop=1;jettySize=auto;html=1;exitX=0.5;exitY=1;exitDx=0;exitDy=0;entryX=0.5;entryY=0;entryDx=0;entryDy=0;labelBackgroundColor=default;strokeColor=default;fontFamily=Helvetica;fontSize=11;fontColor=default;endArrow=none;" edge="1" parent="1" source="SPdRmJfL2yPGevu8dOS3-87" target="SPdRmJfL2yPGevu8dOS3-89">
          <mxGeometry relative="1" as="geometry" />
        </mxCell>
        <mxCell id="SPdRmJfL2yPGevu8dOS3-87" value="Works&amp;nbsp;&lt;br&gt;in" style="rhombus;whiteSpace=wrap;html=1;fontFamily=Helvetica;fontSize=11;fontColor=default;" vertex="1" parent="1">
          <mxGeometry x="570" y="220" width="80" height="60" as="geometry" />
        </mxCell>
        <mxCell id="SPdRmJfL2yPGevu8dOS3-118" style="edgeStyle=none;shape=connector;rounded=0;orthogonalLoop=1;jettySize=auto;html=1;exitX=1;exitY=0.5;exitDx=0;exitDy=0;entryX=0;entryY=0.5;entryDx=0;entryDy=0;labelBackgroundColor=default;strokeColor=default;fontFamily=Helvetica;fontSize=11;fontColor=default;endArrow=none;" edge="1" parent="1" source="SPdRmJfL2yPGevu8dOS3-89" target="SPdRmJfL2yPGevu8dOS3-115">
          <mxGeometry relative="1" as="geometry" />
        </mxCell>
        <mxCell id="SPdRmJfL2yPGevu8dOS3-89" value="Rooms" style="rounded=0;whiteSpace=wrap;html=1;fontFamily=Helvetica;fontSize=11;fontColor=default;" vertex="1" parent="1">
          <mxGeometry x="550" y="485" width="120" height="40" as="geometry" />
        </mxCell>
        <mxCell id="SPdRmJfL2yPGevu8dOS3-93" style="edgeStyle=none;shape=link;rounded=0;orthogonalLoop=1;jettySize=auto;html=1;exitX=1;exitY=0.5;exitDx=0;exitDy=0;entryX=0;entryY=0.5;entryDx=0;entryDy=0;labelBackgroundColor=default;strokeColor=default;fontFamily=Helvetica;fontSize=11;fontColor=default;endArrow=none;" edge="1" parent="1" source="SPdRmJfL2yPGevu8dOS3-91" target="SPdRmJfL2yPGevu8dOS3-89">
          <mxGeometry relative="1" as="geometry" />
        </mxCell>
        <mxCell id="SPdRmJfL2yPGevu8dOS3-91" value="Records&lt;br&gt;data" style="rhombus;whiteSpace=wrap;html=1;fontFamily=Helvetica;fontSize=11;fontColor=default;" vertex="1" parent="1">
          <mxGeometry x="370" y="465" width="80" height="80" as="geometry" />
        </mxCell>
        <mxCell id="SPdRmJfL2yPGevu8dOS3-94" style="edgeStyle=none;shape=link;rounded=0;orthogonalLoop=1;jettySize=auto;html=1;exitX=0.5;exitY=0;exitDx=0;exitDy=0;entryX=0.5;entryY=1;entryDx=0;entryDy=0;labelBackgroundColor=default;strokeColor=default;fontFamily=Helvetica;fontSize=11;fontColor=default;endArrow=none;" edge="1" parent="1" source="SPdRmJfL2yPGevu8dOS3-92" target="SPdRmJfL2yPGevu8dOS3-89">
          <mxGeometry relative="1" as="geometry" />
        </mxCell>
        <mxCell id="SPdRmJfL2yPGevu8dOS3-92" value="Have" style="rhombus;whiteSpace=wrap;html=1;fontFamily=Helvetica;fontSize=11;fontColor=default;" vertex="1" parent="1">
          <mxGeometry x="570" y="660" width="80" height="80" as="geometry" />
        </mxCell>
        <mxCell id="SPdRmJfL2yPGevu8dOS3-101" style="edgeStyle=none;shape=connector;rounded=0;orthogonalLoop=1;jettySize=auto;html=1;exitX=0.5;exitY=1;exitDx=0;exitDy=0;entryX=0;entryY=0;entryDx=0;entryDy=0;labelBackgroundColor=default;strokeColor=default;fontFamily=Helvetica;fontSize=11;fontColor=default;endArrow=none;" edge="1" parent="1" source="SPdRmJfL2yPGevu8dOS3-95" target="SPdRmJfL2yPGevu8dOS3-89">
          <mxGeometry relative="1" as="geometry" />
        </mxCell>
        <mxCell id="SPdRmJfL2yPGevu8dOS3-95" value="Room Number" style="ellipse;whiteSpace=wrap;html=1;fontFamily=Helvetica;fontSize=11;fontColor=default;" vertex="1" parent="1">
          <mxGeometry x="390" y="390" width="120" height="40" as="geometry" />
        </mxCell>
        <mxCell id="SPdRmJfL2yPGevu8dOS3-100" style="edgeStyle=none;shape=connector;rounded=0;orthogonalLoop=1;jettySize=auto;html=1;entryX=0.25;entryY=0;entryDx=0;entryDy=0;labelBackgroundColor=default;strokeColor=default;fontFamily=Helvetica;fontSize=11;fontColor=default;endArrow=none;" edge="1" parent="1" source="SPdRmJfL2yPGevu8dOS3-96" target="SPdRmJfL2yPGevu8dOS3-89">
          <mxGeometry relative="1" as="geometry" />
        </mxCell>
        <mxCell id="SPdRmJfL2yPGevu8dOS3-96" value="Area (Square Feet)" style="ellipse;whiteSpace=wrap;html=1;fontFamily=Helvetica;fontSize=11;fontColor=default;" vertex="1" parent="1">
          <mxGeometry x="480" y="350" width="120" height="40" as="geometry" />
        </mxCell>
        <mxCell id="SPdRmJfL2yPGevu8dOS3-99" style="edgeStyle=none;shape=connector;rounded=0;orthogonalLoop=1;jettySize=auto;html=1;entryX=0;entryY=1;entryDx=0;entryDy=0;labelBackgroundColor=default;strokeColor=default;fontFamily=Helvetica;fontSize=11;fontColor=default;endArrow=none;exitX=0.5;exitY=0;exitDx=0;exitDy=0;" edge="1" parent="1" source="SPdRmJfL2yPGevu8dOS3-98" target="SPdRmJfL2yPGevu8dOS3-89">
          <mxGeometry relative="1" as="geometry">
            <mxPoint x="490" y="630" as="sourcePoint" />
          </mxGeometry>
        </mxCell>
        <mxCell id="SPdRmJfL2yPGevu8dOS3-98" value="Phone Numbers" style="ellipse;whiteSpace=wrap;html=1;fontFamily=Helvetica;fontSize=11;fontColor=default;" vertex="1" parent="1">
          <mxGeometry x="440" y="580" width="100" height="40" as="geometry" />
        </mxCell>
        <mxCell id="SPdRmJfL2yPGevu8dOS3-104" style="edgeStyle=none;shape=link;rounded=0;orthogonalLoop=1;jettySize=auto;html=1;exitX=1;exitY=0.5;exitDx=0;exitDy=0;labelBackgroundColor=default;strokeColor=default;fontFamily=Helvetica;fontSize=11;fontColor=default;endArrow=none;" edge="1" parent="1" source="SPdRmJfL2yPGevu8dOS3-103" target="SPdRmJfL2yPGevu8dOS3-91">
          <mxGeometry relative="1" as="geometry" />
        </mxCell>
        <mxCell id="SPdRmJfL2yPGevu8dOS3-103" value="Sensor Measurements" style="rounded=0;whiteSpace=wrap;html=1;fontFamily=Helvetica;fontSize=11;fontColor=default;" vertex="1" parent="1">
          <mxGeometry x="190" y="475" width="120" height="60" as="geometry" />
        </mxCell>
        <mxCell id="SPdRmJfL2yPGevu8dOS3-113" style="edgeStyle=none;shape=connector;rounded=0;orthogonalLoop=1;jettySize=auto;html=1;exitX=1;exitY=0.5;exitDx=0;exitDy=0;entryX=0;entryY=0.5;entryDx=0;entryDy=0;labelBackgroundColor=default;strokeColor=default;fontFamily=Helvetica;fontSize=11;fontColor=default;endArrow=none;" edge="1" parent="1" source="SPdRmJfL2yPGevu8dOS3-105" target="SPdRmJfL2yPGevu8dOS3-103">
          <mxGeometry relative="1" as="geometry" />
        </mxCell>
        <mxCell id="SPdRmJfL2yPGevu8dOS3-105" value="Date" style="ellipse;whiteSpace=wrap;html=1;fontFamily=Helvetica;fontSize=11;fontColor=default;" vertex="1" parent="1">
          <mxGeometry y="490" width="120" height="30" as="geometry" />
        </mxCell>
        <mxCell id="SPdRmJfL2yPGevu8dOS3-112" style="edgeStyle=none;shape=connector;rounded=0;orthogonalLoop=1;jettySize=auto;html=1;exitX=1;exitY=0.5;exitDx=0;exitDy=0;entryX=0;entryY=0.5;entryDx=0;entryDy=0;labelBackgroundColor=default;strokeColor=default;fontFamily=Helvetica;fontSize=11;fontColor=default;endArrow=none;" edge="1" parent="1" source="SPdRmJfL2yPGevu8dOS3-106" target="SPdRmJfL2yPGevu8dOS3-103">
          <mxGeometry relative="1" as="geometry" />
        </mxCell>
        <mxCell id="SPdRmJfL2yPGevu8dOS3-106" value="Time" style="ellipse;whiteSpace=wrap;html=1;fontFamily=Helvetica;fontSize=11;fontColor=default;" vertex="1" parent="1">
          <mxGeometry y="535" width="120" height="30" as="geometry" />
        </mxCell>
        <mxCell id="SPdRmJfL2yPGevu8dOS3-110" style="edgeStyle=none;shape=connector;rounded=0;orthogonalLoop=1;jettySize=auto;html=1;exitX=0.5;exitY=0;exitDx=0;exitDy=0;entryX=0;entryY=0.5;entryDx=0;entryDy=0;labelBackgroundColor=default;strokeColor=default;fontFamily=Helvetica;fontSize=11;fontColor=default;endArrow=none;" edge="1" parent="1" source="SPdRmJfL2yPGevu8dOS3-107" target="SPdRmJfL2yPGevu8dOS3-103">
          <mxGeometry relative="1" as="geometry" />
        </mxCell>
        <mxCell id="SPdRmJfL2yPGevu8dOS3-107" value="Sound Value" style="ellipse;whiteSpace=wrap;html=1;fontFamily=Helvetica;fontSize=11;fontColor=default;" vertex="1" parent="1">
          <mxGeometry x="50" y="400" width="120" height="35" as="geometry" />
        </mxCell>
        <mxCell id="SPdRmJfL2yPGevu8dOS3-111" style="edgeStyle=none;shape=connector;rounded=0;orthogonalLoop=1;jettySize=auto;html=1;exitX=0.5;exitY=0;exitDx=0;exitDy=0;labelBackgroundColor=default;strokeColor=default;fontFamily=Helvetica;fontSize=11;fontColor=default;endArrow=none;entryX=0;entryY=0.5;entryDx=0;entryDy=0;" edge="1" parent="1" source="SPdRmJfL2yPGevu8dOS3-108" target="SPdRmJfL2yPGevu8dOS3-103">
          <mxGeometry relative="1" as="geometry">
            <mxPoint x="190" y="480" as="targetPoint" />
          </mxGeometry>
        </mxCell>
        <mxCell id="SPdRmJfL2yPGevu8dOS3-108" value="Temperature Value" style="ellipse;whiteSpace=wrap;html=1;fontFamily=Helvetica;fontSize=11;fontColor=default;" vertex="1" parent="1">
          <mxGeometry x="55" y="580" width="120" height="40" as="geometry" />
        </mxCell>
        <mxCell id="SPdRmJfL2yPGevu8dOS3-114" style="edgeStyle=none;shape=connector;rounded=0;orthogonalLoop=1;jettySize=auto;html=1;exitX=1;exitY=0.5;exitDx=0;exitDy=0;labelBackgroundColor=default;strokeColor=default;fontFamily=Helvetica;fontSize=11;fontColor=default;endArrow=none;entryX=0;entryY=0.5;entryDx=0;entryDy=0;" edge="1" parent="1" source="SPdRmJfL2yPGevu8dOS3-109" target="SPdRmJfL2yPGevu8dOS3-103">
          <mxGeometry relative="1" as="geometry">
            <mxPoint x="140" y="480" as="targetPoint" />
          </mxGeometry>
        </mxCell>
        <mxCell id="SPdRmJfL2yPGevu8dOS3-109" value="Light Value" style="ellipse;whiteSpace=wrap;html=1;fontFamily=Helvetica;fontSize=11;fontColor=default;" vertex="1" parent="1">
          <mxGeometry y="440" width="120" height="30" as="geometry" />
        </mxCell>
        <mxCell id="SPdRmJfL2yPGevu8dOS3-127" style="edgeStyle=none;shape=connector;rounded=0;orthogonalLoop=1;jettySize=auto;html=1;exitX=1;exitY=0.5;exitDx=0;exitDy=0;labelBackgroundColor=default;strokeColor=default;fontFamily=Helvetica;fontSize=11;fontColor=default;endArrow=none;" edge="1" parent="1" source="SPdRmJfL2yPGevu8dOS3-115" target="SPdRmJfL2yPGevu8dOS3-126">
          <mxGeometry relative="1" as="geometry" />
        </mxCell>
        <mxCell id="SPdRmJfL2yPGevu8dOS3-130" style="edgeStyle=none;shape=connector;rounded=0;orthogonalLoop=1;jettySize=auto;html=1;exitX=0.5;exitY=0;exitDx=0;exitDy=0;entryX=0.5;entryY=1;entryDx=0;entryDy=0;labelBackgroundColor=default;strokeColor=default;fontFamily=Helvetica;fontSize=11;fontColor=default;endArrow=none;" edge="1" parent="1" source="SPdRmJfL2yPGevu8dOS3-115" target="SPdRmJfL2yPGevu8dOS3-129">
          <mxGeometry relative="1" as="geometry" />
        </mxCell>
        <mxCell id="SPdRmJfL2yPGevu8dOS3-115" value="" style="ellipse;whiteSpace=wrap;html=1;aspect=fixed;fontFamily=Helvetica;fontSize=11;fontColor=default;" vertex="1" parent="1">
          <mxGeometry x="728.75" y="488.75" width="32.5" height="32.5" as="geometry" />
        </mxCell>
        <mxCell id="SPdRmJfL2yPGevu8dOS3-116" value="" style="ellipse;whiteSpace=wrap;html=1;aspect=fixed;fontFamily=Helvetica;fontSize=11;fontColor=default;" vertex="1" parent="1">
          <mxGeometry x="739.5300000000001" y="499.53000000000003" width="10.94" height="10.94" as="geometry" />
        </mxCell>
        <mxCell id="SPdRmJfL2yPGevu8dOS3-124" style="edgeStyle=none;shape=connector;rounded=0;orthogonalLoop=1;jettySize=auto;html=1;exitX=0.5;exitY=0;exitDx=0;exitDy=0;entryX=0.5;entryY=1;entryDx=0;entryDy=0;labelBackgroundColor=default;strokeColor=default;fontFamily=Helvetica;fontSize=11;fontColor=default;endArrow=none;" edge="1" parent="1" source="SPdRmJfL2yPGevu8dOS3-120" target="SPdRmJfL2yPGevu8dOS3-115">
          <mxGeometry relative="1" as="geometry" />
        </mxCell>
        <mxCell id="SPdRmJfL2yPGevu8dOS3-120" value="Conference room" style="rounded=0;whiteSpace=wrap;html=1;fontFamily=Helvetica;fontSize=11;fontColor=default;" vertex="1" parent="1">
          <mxGeometry x="696.25" y="575" width="97.5" height="30" as="geometry" />
        </mxCell>
        <mxCell id="SPdRmJfL2yPGevu8dOS3-122" style="edgeStyle=none;shape=link;rounded=0;orthogonalLoop=1;jettySize=auto;html=1;exitX=0.5;exitY=0;exitDx=0;exitDy=0;entryX=0.5;entryY=1;entryDx=0;entryDy=0;labelBackgroundColor=default;strokeColor=default;fontFamily=Helvetica;fontSize=11;fontColor=default;endArrow=none;" edge="1" parent="1" source="SPdRmJfL2yPGevu8dOS3-121" target="SPdRmJfL2yPGevu8dOS3-120">
          <mxGeometry relative="1" as="geometry" />
        </mxCell>
        <mxCell id="SPdRmJfL2yPGevu8dOS3-121" value="Max Capicity" style="ellipse;whiteSpace=wrap;html=1;fontFamily=Helvetica;fontSize=11;fontColor=default;" vertex="1" parent="1">
          <mxGeometry x="700" y="660" width="90" height="30" as="geometry" />
        </mxCell>
        <mxCell id="SPdRmJfL2yPGevu8dOS3-126" value="Lab" style="rounded=0;whiteSpace=wrap;html=1;fontFamily=Helvetica;fontSize=11;fontColor=default;" vertex="1" parent="1">
          <mxGeometry x="790" y="490" width="60" height="30" as="geometry" />
        </mxCell>
        <mxCell id="SPdRmJfL2yPGevu8dOS3-129" value="Office" style="rounded=0;whiteSpace=wrap;html=1;fontFamily=Helvetica;fontSize=11;fontColor=default;" vertex="1" parent="1">
          <mxGeometry x="692.5" y="390" width="105" height="35" as="geometry" />
        </mxCell>
        <mxCell id="SPdRmJfL2yPGevu8dOS3-135" style="edgeStyle=none;shape=connector;rounded=0;orthogonalLoop=1;jettySize=auto;html=1;exitX=0.5;exitY=0;exitDx=0;exitDy=0;entryX=0.5;entryY=1;entryDx=0;entryDy=0;labelBackgroundColor=default;strokeColor=default;fontFamily=Helvetica;fontSize=11;fontColor=default;endArrow=none;" edge="1" parent="1" source="SPdRmJfL2yPGevu8dOS3-134" target="SPdRmJfL2yPGevu8dOS3-92">
          <mxGeometry relative="1" as="geometry" />
        </mxCell>
        <mxCell id="SPdRmJfL2yPGevu8dOS3-134" value="Building" style="rounded=0;whiteSpace=wrap;html=1;fontFamily=Helvetica;fontSize=11;fontColor=default;" vertex="1" parent="1">
          <mxGeometry x="550" y="810" width="120" height="40" as="geometry" />
        </mxCell>
        <mxCell id="SPdRmJfL2yPGevu8dOS3-142" style="edgeStyle=none;shape=connector;rounded=0;orthogonalLoop=1;jettySize=auto;html=1;exitX=1;exitY=0.5;exitDx=0;exitDy=0;entryX=0;entryY=0.5;entryDx=0;entryDy=0;labelBackgroundColor=default;strokeColor=default;fontFamily=Helvetica;fontSize=11;fontColor=default;endArrow=none;" edge="1" parent="1" source="SPdRmJfL2yPGevu8dOS3-136" target="SPdRmJfL2yPGevu8dOS3-134">
          <mxGeometry relative="1" as="geometry" />
        </mxCell>
        <mxCell id="SPdRmJfL2yPGevu8dOS3-136" value="Number of Rooms" style="ellipse;whiteSpace=wrap;html=1;fontFamily=Helvetica;fontSize=11;fontColor=default;" vertex="1" parent="1">
          <mxGeometry x="380" y="810" width="120" height="40" as="geometry" />
        </mxCell>
        <mxCell id="SPdRmJfL2yPGevu8dOS3-143" style="edgeStyle=none;shape=connector;rounded=0;orthogonalLoop=1;jettySize=auto;html=1;exitX=0;exitY=0.5;exitDx=0;exitDy=0;labelBackgroundColor=default;strokeColor=default;fontFamily=Helvetica;fontSize=11;fontColor=default;endArrow=none;" edge="1" parent="1" source="SPdRmJfL2yPGevu8dOS3-137" target="SPdRmJfL2yPGevu8dOS3-134">
          <mxGeometry relative="1" as="geometry" />
        </mxCell>
        <mxCell id="SPdRmJfL2yPGevu8dOS3-137" value="Number of Floors" style="ellipse;whiteSpace=wrap;html=1;fontFamily=Helvetica;fontSize=11;fontColor=default;" vertex="1" parent="1">
          <mxGeometry x="710" y="810" width="120" height="40" as="geometry" />
        </mxCell>
        <mxCell id="SPdRmJfL2yPGevu8dOS3-141" style="edgeStyle=none;shape=connector;rounded=0;orthogonalLoop=1;jettySize=auto;html=1;exitX=0.5;exitY=0;exitDx=0;exitDy=0;entryX=0.5;entryY=1;entryDx=0;entryDy=0;labelBackgroundColor=default;strokeColor=default;fontFamily=Helvetica;fontSize=11;fontColor=default;endArrow=none;" edge="1" parent="1" source="SPdRmJfL2yPGevu8dOS3-140" target="SPdRmJfL2yPGevu8dOS3-134">
          <mxGeometry relative="1" as="geometry" />
        </mxCell>
        <mxCell id="SPdRmJfL2yPGevu8dOS3-140" value="Building Name" style="ellipse;whiteSpace=wrap;html=1;fontFamily=Helvetica;fontSize=11;fontColor=default;" vertex="1" parent="1">
          <mxGeometry x="550" y="920" width="120" height="40" as="geometry" />
        </mxCell>
        <mxCell id="SPdRmJfL2yPGevu8dOS3-145" value="" style="shape=partialRectangle;whiteSpace=wrap;html=1;top=0;bottom=0;fillColor=none;fontFamily=Helvetica;fontSize=11;fontColor=default;" vertex="1" parent="1">
          <mxGeometry x="733.59" y="545" width="22.81" height="15" as="geometry" />
        </mxCell>
        <mxCell id="SPdRmJfL2yPGevu8dOS3-146" value="" style="shape=partialRectangle;whiteSpace=wrap;html=1;top=0;bottom=0;fillColor=none;fontFamily=Helvetica;fontSize=11;fontColor=default;direction=south;" vertex="1" parent="1">
          <mxGeometry x="765.005" y="493.595" width="15" height="22.81" as="geometry" />
        </mxCell>
        <mxCell id="SPdRmJfL2yPGevu8dOS3-148" value="" style="shape=partialRectangle;whiteSpace=wrap;html=1;top=0;bottom=0;fillColor=none;fontFamily=Helvetica;fontSize=11;fontColor=default;" vertex="1" parent="1">
          <mxGeometry x="733.6" y="440" width="22.81" height="15" as="geometry" />
        </mxCell>
        <mxCell id="SPdRmJfL2yPGevu8dOS3-149" style="edgeStyle=none;shape=connector;rounded=0;orthogonalLoop=1;jettySize=auto;html=1;exitX=0;exitY=0;exitDx=0;exitDy=0;entryX=1;entryY=0;entryDx=0;entryDy=0;labelBackgroundColor=default;strokeColor=default;fontFamily=Helvetica;fontSize=11;fontColor=default;endArrow=none;" edge="1" parent="1" source="SPdRmJfL2yPGevu8dOS3-148" target="SPdRmJfL2yPGevu8dOS3-148">
          <mxGeometry relative="1" as="geometry" />
        </mxCell>
        <mxCell id="SPdRmJfL2yPGevu8dOS3-150" style="edgeStyle=none;shape=connector;rounded=0;orthogonalLoop=1;jettySize=auto;html=1;exitX=0;exitY=0;exitDx=0;exitDy=0;entryX=1;entryY=0;entryDx=0;entryDy=0;labelBackgroundColor=default;strokeColor=default;fontFamily=Helvetica;fontSize=11;fontColor=default;endArrow=none;" edge="1" parent="1" source="SPdRmJfL2yPGevu8dOS3-146" target="SPdRmJfL2yPGevu8dOS3-146">
          <mxGeometry relative="1" as="geometry" />
        </mxCell>
        <mxCell id="SPdRmJfL2yPGevu8dOS3-151" style="edgeStyle=none;shape=connector;rounded=0;orthogonalLoop=1;jettySize=auto;html=1;exitX=0;exitY=1;exitDx=0;exitDy=0;entryX=1;entryY=1;entryDx=0;entryDy=0;labelBackgroundColor=default;strokeColor=default;fontFamily=Helvetica;fontSize=11;fontColor=default;endArrow=none;" edge="1" parent="1" source="SPdRmJfL2yPGevu8dOS3-145" target="SPdRmJfL2yPGevu8dOS3-145">
          <mxGeometry relative="1" as="geometry" />
        </mxCell>
      </root>
    </mxGraphModel>
  </diagram>
</mxfile>
